<?xml version="1.0" encoding="utf-8"?>
<svg version="1.1" xmlns:xlink="http://www.w3.org/1999/xlink" width="92px" height="84px" xmlns="http://www.w3.org/2000/svg">
  <g transform="matrix(1 0 0 1 -192 -495 )">
    <path d="M 91.3890625 60.73046875  C 91.7963541666667 63.4830729166667  92 66.4088541666667  92 69.5078125  C 92 73.4817708333333  90.5026041666667 76.890625  87.5078125 79.734375  C 84.5130208333333 82.578125  80.9072916666667 84  76.690625 84  L 15.309375 84  C 11.0927083333333 84  7.48697916666667 82.578125  4.4921875 79.734375  C 1.49739583333333 76.890625  0 73.4817708333333  0 69.5078125  C 0 66.4088541666667  0.203645833333334 63.4830729166667  0.610937500000001 60.73046875  C 1.01822916666667 57.9778645833333  1.77291666666667 55.20703125  2.875 52.41796875  C 3.97708333333333 49.62890625  5.37864583333333 47.2408854166667  7.0796875 45.25390625  C 8.78072916666667 43.2669270833333  11.0328125 41.64453125  13.8359375 40.38671875  C 16.6390625 39.12890625  19.8614583333333 38.5  23.503125 38.5  C 29.7802083333333 43.1666666666667  37.2791666666667 45.5  46 45.5  C 54.7208333333333 45.5  62.2197916666667 43.1666666666667  68.496875 38.5  C 72.1385416666667 38.5  75.3609375 39.12890625  78.1640625 40.38671875  C 80.9671875 41.64453125  83.2192708333333 43.2669270833333  84.9203125 45.25390625  C 86.6213541666667 47.2408854166667  88.0229166666667 49.62890625  89.125 52.41796875  C 90.2270833333333 55.20703125  90.9817708333333 57.9778645833333  91.3890625 60.73046875  Z M 65.5140625 6.15234375  C 70.9046875 10.25390625  73.6 15.203125  73.6 21  C 73.6 26.796875  70.9046875 31.74609375  65.5140625 35.84765625  C 60.1234375 39.94921875  53.61875 42  46 42  C 38.38125 42  31.8765625 39.94921875  26.4859375 35.84765625  C 21.0953125 31.74609375  18.4 26.796875  18.4 21  C 18.4 15.203125  21.0953125 10.25390625  26.4859375 6.15234375  C 31.8765625 2.05078125  38.38125 0  46 0  C 53.61875 0  60.1234375 2.05078125  65.5140625 6.15234375  Z " fill-rule="nonzero" fill="#02a7f0" stroke="none" transform="matrix(1 0 0 1 192 495 )" />
  </g>
</svg>