<?xml version="1.0" encoding="utf-8"?>
<svg version="1.1" xmlns:xlink="http://www.w3.org/1999/xlink" width="12px" height="12px" viewBox="192 2015.5  12 12" xmlns="http://www.w3.org/2000/svg">
  <path d="M 198 2015.5  C 201.36 2015.5  204 2018.14  204 2021.5  C 204 2024.86  201.36 2027.5  198 2027.5  C 194.64 2027.5  192 2024.86  192 2021.5  C 192 2018.14  194.64 2015.5  198 2015.5  Z " fill-rule="nonzero" fill="#f0f0f0" stroke="none" />
  <path d="M 198 2016  C 201.08 2016  203.5 2018.42  203.5 2021.5  C 203.5 2024.58  201.08 2027  198 2027  C 194.92 2027  192.5 2024.58  192.5 2021.5  C 192.5 2018.42  194.92 2016  198 2016  Z " stroke-width="1" stroke="#797979" fill="none" />
  <path d="M 198 2024.5  C 196.32 2024.5  195 2023.18  195 2021.5  C 195 2019.82  196.32 2018.5  198 2018.5  C 199.68 2018.5  201 2019.82  201 2021.5  C 201 2023.18  199.68 2024.5  198 2024.5  " fill-rule="nonzero" fill="#797979" stroke="none" />
</svg>