<?xml version="1.0" encoding="utf-8"?>
<svg version="1.1" xmlns:xlink="http://www.w3.org/1999/xlink" width="12px" height="12px" viewBox="345 2015.5  12 12" xmlns="http://www.w3.org/2000/svg">
  <path d="M 351 2015.5  C 354.36 2015.5  357 2018.14  357 2021.5  C 357 2024.86  354.36 2027.5  351 2027.5  C 347.64 2027.5  345 2024.86  345 2021.5  C 345 2018.14  347.64 2015.5  351 2015.5  Z " fill-rule="nonzero" fill="#f0f0f0" stroke="none" />
  <path d="M 351 2016  C 354.08 2016  356.5 2018.42  356.5 2021.5  C 356.5 2024.58  354.08 2027  351 2027  C 347.92 2027  345.5 2024.58  345.5 2021.5  C 345.5 2018.42  347.92 2016  351 2016  Z " stroke-width="1" stroke="#797979" fill="none" />
  <path d="M 351 2024.5  C 349.32 2024.5  348 2023.18  348 2021.5  C 348 2019.82  349.32 2018.5  351 2018.5  C 352.68 2018.5  354 2019.82  354 2021.5  C 354 2023.18  352.68 2024.5  351 2024.5  " fill-rule="nonzero" fill="#797979" stroke="none" />
</svg>