<?xml version="1.0" encoding="utf-8"?>
<svg version="1.1" xmlns:xlink="http://www.w3.org/1999/xlink" width="154px" height="144px" xmlns="http://www.w3.org/2000/svg">
  <g transform="matrix(1 0 0 1 -705 -144 )">
    <path d="M 152.97734375 104.109375  C 153.659114583333 108.828125  154 113.84375  154 119.15625  C 154 125.96875  151.493489583333 131.8125  146.48046875 136.6875  C 141.467447916667 141.5625  135.431770833333 144  128.3734375 144  L 25.6265625 144  C 18.5682291666667 144  12.5325520833333 141.5625  7.51953125 136.6875  C 2.50651041666667 131.8125  0 125.96875  0 119.15625  C 0 113.84375  0.340885416666667 108.828125  1.02265625 104.109375  C 1.70442708333333 99.390625  2.96770833333333 94.640625  4.8125 89.859375  C 6.65729166666667 85.078125  9.00338541666667 80.984375  11.85078125 77.578125  C 14.6981770833333 74.171875  18.46796875 71.390625  23.16015625 69.234375  C 27.85234375 67.078125  33.2463541666667 66  39.3421875 66  C 49.8494791666667 74  62.4020833333333 78  77 78  C 91.5979166666667 78  104.150520833333 74  114.6578125 66  C 120.753645833333 66  126.14765625 67.078125  130.83984375 69.234375  C 135.53203125 71.390625  139.301822916667 74.171875  142.14921875 77.578125  C 144.996614583333 80.984375  147.342708333333 85.078125  149.1875 89.859375  C 151.032291666667 94.640625  152.295572916667 99.390625  152.97734375 104.109375  Z M 109.66484375 10.546875  C 118.68828125 17.578125  123.2 26.0625  123.2 36  C 123.2 45.9375  118.68828125 54.421875  109.66484375 61.453125  C 100.64140625 68.484375  89.753125 72  77 72  C 64.246875 72  53.35859375 68.484375  44.33515625 61.453125  C 35.31171875 54.421875  30.8 45.9375  30.8 36  C 30.8 26.0625  35.31171875 17.578125  44.33515625 10.546875  C 53.35859375 3.515625  64.246875 0  77 0  C 89.753125 0  100.64140625 3.515625  109.66484375 10.546875  Z " fill-rule="nonzero" fill="#02a7f0" stroke="none" transform="matrix(1 0 0 1 705 144 )" />
  </g>
</svg>