<?xml version="1.0" encoding="utf-8"?>
<svg version="1.1" xmlns:xlink="http://www.w3.org/1999/xlink" width="41px" height="35px" xmlns="http://www.w3.org/2000/svg">
  <g transform="matrix(1 0 0 1 -351 -700 )">
    <path d="M 39.6201923076923 12.5488342785129  C 40.5400641025641 12.6811594202899  41 13.0193236714976  41 13.5633270321361  C 41 13.8867884898131  40.7864583333333 14.2396555345516  40.359375 14.6219281663516  L 31.4152644230769 22.4291115311909  L 33.5342548076923 33.4562066792691  C 33.5506810897436 33.5591262339845  33.5588942307692 33.7061541692922  33.5588942307692 33.8972904851922  C 33.5588942307692 34.2060491493384  33.47265625 34.4670237345096  33.3001802884615 34.6802142407057  C 33.1277043269231 34.8934047469019  32.877203525641 35  32.5486778846154 35  C 32.236578525641 35  31.9080528846154 34.9117832388154  31.5631009615385 34.7353497164461  L 20.5 29.5305608065532  L 9.43689903846154 34.7353497164461  C 9.07552083333333 34.9117832388154  8.74699519230769 35  8.45132211538462 35  C 8.10637019230769 35  7.84765625 34.8934047469019  7.67518028846154 34.6802142407057  C 7.50270432692308 34.4670237345096  7.41646634615385 34.2060491493384  7.41646634615385 33.8972904851922  C 7.41646634615385 33.8090737240076  7.43289262820513 33.6620457886998  7.46574519230769 33.4562066792691  L 9.58473557692308 22.4291115311909  L 0.615985576923077 14.6219281663516  C 0.205328525641026 14.2249527410208  0 13.8720856962823  0 13.5633270321361  C 0 13.0193236714976  0.459935897435897 12.6811594202899  1.37980769230769 12.5488342785129  L 13.7487980769231 10.9388783868935  L 19.2926682692308 0.904221802142405  C 19.6047676282051 0.3014072673808  20.0072115384615 0  20.5 0  C 20.9927884615385 0  21.3952323717949 0.3014072673808  21.7073317307692 0.904221802142405  L 27.2512019230769 10.9388783868935  L 39.6201923076923 12.5488342785129  Z " fill-rule="nonzero" fill="#f59a23" stroke="none" fill-opacity="0.803921568627451" transform="matrix(1 0 0 1 351 700 )" />
  </g>
</svg>